<svg width="62" height="18" viewBox="0 0 62 18" fill="none" xmlns="http://www.w3.org/2000/svg">
<g clip-path="url(#clip0_178_409)">
<path d="M59.8429 17.9993H2.17359C1.59779 17.9991 1.04556 17.7754 0.638062 17.377C0.230567 16.9786 0.00109559 16.4382 0 15.8744L0 2.12787C0.00085181 1.56375 0.230172 1.02299 0.637654 0.624223C1.04514 0.225454 1.59751 0.00123908 2.17359 0.000762939L59.8424 0.000762939C60.4184 0.00147666 60.9707 0.225768 61.3781 0.624485C61.7855 1.0232 62.0149 1.56382 62.016 2.12787V15.8744C62.0169 17.0464 61.0402 17.9993 59.8429 17.9993Z" fill="#A6A6A6"/>
<path d="M61.6051 15.8744C61.6051 16.1009 61.5595 16.3252 61.4709 16.5345C61.3823 16.7438 61.2525 16.9339 61.0888 17.094C60.9252 17.2541 60.7309 17.381 60.5171 17.4675C60.3033 17.5541 60.0742 17.5985 59.8429 17.5982H2.17358C1.70616 17.5987 1.2577 17.4174 0.926797 17.0941C0.595899 16.7708 0.409667 16.3321 0.409058 15.8744V2.12742C0.409666 1.6695 0.595825 1.23054 0.926657 0.906916C1.25749 0.583291 1.70595 0.401456 2.17358 0.401337H59.8424C60.0739 0.401337 60.3031 0.445986 60.5169 0.532736C60.7307 0.619485 60.925 0.746634 61.0887 0.906921C61.2523 1.06721 61.3821 1.25749 61.4706 1.46691C61.5592 1.67632 61.6047 1.90077 61.6046 2.12742L61.6051 15.8744Z" fill="black"/>
<path d="M13.8477 8.90527C13.8344 7.45464 15.0607 6.74891 15.1167 6.71605C14.4222 5.72451 13.3458 5.58904 12.9675 5.57823C12.0634 5.48507 11.1864 6.10798 10.7259 6.10798C10.2562 6.10798 9.54695 5.58723 8.78258 5.60254C7.79897 5.61739 6.8788 6.17505 6.37412 7.04101C5.3326 8.8067 6.10938 11.4014 7.10723 12.8287C7.60639 13.5281 8.18966 14.3081 8.95311 14.2807C9.7 14.2509 9.979 13.8148 10.8803 13.8148C11.7734 13.8148 12.0354 14.2807 12.814 14.2631C13.6156 14.2509 14.1203 13.561 14.602 12.8557C15.1788 12.055 15.4104 11.2655 15.4196 11.225C15.4013 11.2187 13.8633 10.6435 13.8477 8.90527ZM12.3769 4.63935C12.7786 4.14741 13.0535 3.47813 12.9772 2.79895C12.3957 2.82416 11.6686 3.19278 11.2499 3.67392C10.8794 4.0979 10.5485 4.79283 10.634 5.44636C11.2871 5.49407 11.9577 5.12365 12.3769 4.63935Z" fill="white"/>
<path d="M59.8429 0.000762939H28.9535L41.0523 17.9993H59.8429C60.4188 17.9988 60.9711 17.7747 61.3785 17.3761C61.786 16.9776 62.0154 16.437 62.0165 15.8731V2.12787C62.0155 1.56379 61.7862 1.0231 61.3787 0.624354C60.9713 0.225611 60.419 0.00135792 59.8429 0.000762939Z" fill="url(#paint0_linear_178_409)"/>
<path d="M24.666 14.1803H23.6222L23.0504 12.4209H21.063L20.5183 14.1803H19.5021L21.4716 8.19053H22.6878L24.666 14.1803ZM22.8781 11.6828L22.361 10.1187C22.3063 9.95892 22.2033 9.58265 22.0526 8.99034H22.0342C21.9735 9.24509 21.8765 9.62136 21.7437 10.1187L21.2353 11.6828H22.8781ZM29.721 11.9677C29.721 12.7022 29.5174 13.2828 29.1097 13.709C28.7448 14.0885 28.2911 14.278 27.7501 14.278C27.1659 14.278 26.7458 14.0741 26.4907 13.6654V15.9316H25.5108V11.2808C25.5108 10.8195 25.4984 10.3464 25.4745 9.86126H26.3363L26.391 10.5458H26.4094C26.7362 10.03 27.2321 9.77214 27.8977 9.77214C28.418 9.77214 28.8523 9.97333 29.1998 10.3762C29.5468 10.7799 29.721 11.3101 29.721 11.9677ZM28.7227 12.0028C28.7227 11.5824 28.6262 11.2358 28.4322 10.9626C28.2203 10.6786 27.9358 10.5364 27.5791 10.5364C27.3374 10.5364 27.1177 10.6156 26.9214 10.7718C26.7247 10.9293 26.596 11.135 26.5358 11.3897C26.5089 11.485 26.4936 11.5831 26.4903 11.6819V12.4024C26.4903 12.7162 26.5886 12.9813 26.7854 13.1982C26.9821 13.4142 27.2376 13.5227 27.552 13.5227C27.9211 13.5227 28.2084 13.3827 28.4138 13.105C28.6198 12.8264 28.7227 12.4592 28.7227 12.0028ZM34.794 11.9677C34.794 12.7022 34.5903 13.2828 34.1827 13.709C33.8172 14.0885 33.3641 14.278 32.8226 14.278C32.2384 14.278 31.8183 14.0741 31.5632 13.6654V15.9316H30.5833V11.2808C30.5833 10.8195 30.5709 10.3464 30.547 9.86126H31.4088L31.4635 10.5458H31.4819C31.8082 10.03 32.3041 9.77214 32.9701 9.77214C33.49 9.77214 33.9243 9.97333 34.2727 10.3762C34.6193 10.7799 34.794 11.3101 34.794 11.9677ZM33.7952 12.0028C33.7952 11.5824 33.6982 11.2358 33.5042 10.9626C33.2923 10.6786 33.0088 10.5364 32.6521 10.5364C32.4103 10.5364 32.1906 10.6156 31.9934 10.7718C31.7967 10.9293 31.6685 11.135 31.6083 11.3897C31.5784 11.5086 31.5623 11.6053 31.5623 11.6819V12.4024C31.5623 12.7162 31.6611 12.9813 31.8569 13.1982C32.0536 13.4138 32.3092 13.5227 32.6245 13.5227C32.9941 13.5227 33.2813 13.3827 33.4863 13.105C33.6922 12.8264 33.7952 12.4592 33.7952 12.0028ZM40.4658 12.5001C40.4658 13.0101 40.2838 13.4246 39.9221 13.7446C39.524 14.0939 38.9683 14.2689 38.2559 14.2689C37.5977 14.2689 37.07 14.1447 36.672 13.8958L36.8986 13.096C37.3284 13.3454 37.8004 13.4696 38.3143 13.4696C38.6838 13.4696 38.9711 13.3877 39.1761 13.2252C39.3815 13.0623 39.4854 12.8444 39.4854 12.5726C39.4854 12.3291 39.3994 12.1252 39.2308 11.9591C39.0612 11.7935 38.7808 11.6391 38.3869 11.4973C37.3159 11.1062 36.78 10.5341 36.78 9.78159C36.78 9.2901 36.9694 8.88772 37.3472 8.57311C37.725 8.25895 38.226 8.10187 38.8493 8.10187C39.4059 8.10187 39.8697 8.19684 40.2378 8.38632L39.9919 9.16857C39.6454 8.98494 39.2542 8.89312 38.8166 8.89312C38.471 8.89312 38.1998 8.97638 38.0059 9.14202C37.8427 9.29009 37.76 9.47058 37.76 9.68482C37.76 9.92112 37.8542 10.1174 38.0417 10.2713C38.2044 10.4131 38.5013 10.5674 38.9306 10.7331C39.4574 10.941 39.8444 11.1832 40.0921 11.4613C40.3417 11.7395 40.4658 12.0865 40.4658 12.5001ZM43.714 10.5814H42.6339V12.6783C42.6339 13.2117 42.8242 13.4777 43.2056 13.4777C43.3808 13.4777 43.526 13.4633 43.6409 13.4331L43.668 14.1618C43.475 14.2325 43.2208 14.268 42.906 14.268C42.519 14.268 42.2165 14.1524 41.9982 13.921C41.7808 13.6897 41.6714 13.3022 41.6714 12.7567V10.5796H41.0279V9.85945H41.6714V9.06865L42.6339 8.7842V9.85945H43.714V10.5814ZM48.5778 11.9852C48.5778 12.6491 48.3838 13.1941 47.9968 13.6204C47.5919 14.0592 47.0532 14.278 46.3817 14.278C45.7336 14.278 45.2184 14.0678 44.8341 13.6478C44.4499 13.227 44.2577 12.6968 44.2577 12.0572C44.2577 11.3879 44.4563 10.8397 44.852 10.4135C45.2487 9.98683 45.7828 9.77349 46.4543 9.77349C47.1015 9.77349 47.6213 9.98413 48.0148 10.4045C48.3907 10.8123 48.5778 11.3389 48.5778 11.9852ZM47.562 12.0073C47.562 11.6116 47.4747 11.2723 47.2996 10.9883C47.0941 10.6453 46.7999 10.4738 46.4189 10.4738C46.0264 10.4738 45.7253 10.6453 45.5203 10.9883C45.3448 11.2723 45.2574 11.6175 45.2574 12.0253C45.2574 12.4213 45.3448 12.7616 45.5203 13.0447C45.7322 13.3877 46.0278 13.5592 46.4106 13.5592C46.7852 13.5592 47.0789 13.3841 47.2913 13.0362C47.4715 12.7454 47.562 12.4038 47.562 12.0073ZM51.7644 10.7052C51.6625 10.6871 51.5591 10.6783 51.4555 10.6786C51.1108 10.6786 50.8442 10.8055 50.6567 11.0612C50.494 11.2862 50.4122 11.5707 50.4122 11.9141V14.1803H49.4322V11.2214C49.4331 10.768 49.4236 10.3147 49.4038 9.86171H50.2573L50.2931 10.6881H50.3203C50.4241 10.4041 50.5868 10.175 50.8102 10.0035C51.0147 9.85364 51.2631 9.77249 51.5185 9.77214C51.6091 9.77214 51.6909 9.77844 51.7635 9.78969L51.7644 10.7052ZM56.147 11.8164C56.1495 11.9623 56.1375 12.1081 56.1111 12.2517H53.1713C53.1824 12.6783 53.3249 13.0051 53.5979 13.2302C53.8456 13.4309 54.166 13.5317 54.5594 13.5317C54.9947 13.5317 55.3918 13.4642 55.7489 13.3278L55.9025 13.9935C55.4851 14.1717 54.9924 14.2604 54.4238 14.2604C53.7399 14.2604 53.2031 14.0633 52.8124 13.6699C52.4226 13.2761 52.2273 12.7468 52.2273 12.0838C52.2273 11.433 52.4088 10.8906 52.7724 10.4581C53.153 9.99628 53.6673 9.76539 54.3144 9.76539C54.9501 9.76539 55.4313 9.99628 55.7581 10.4581C56.0169 10.824 56.147 11.2777 56.147 11.8164ZM55.2126 11.5675C55.2195 11.2826 55.1551 11.0373 55.0223 10.8298C54.8527 10.5625 54.5916 10.4293 54.2418 10.4293C53.9215 10.4293 53.6604 10.5593 53.4618 10.8204C53.2987 11.0279 53.2017 11.2772 53.1718 11.5666L55.2126 11.5675Z" fill="white"/>
<path d="M20.7803 6.07286C20.5077 6.07286 20.2719 6.05981 20.0757 6.03776V3.1419C20.3502 3.10038 20.6276 3.07991 20.9053 3.08069C22.0291 3.08069 22.5467 3.62214 22.5467 4.50476C22.5467 5.52286 21.9353 6.07286 20.7803 6.07286ZM20.9448 3.45201C20.7932 3.45201 20.664 3.46101 20.5569 3.48262V5.68399C20.6148 5.69299 20.7261 5.69704 20.8823 5.69704C21.6187 5.69704 22.0378 5.28656 22.0378 4.51782C22.0378 3.83233 21.6586 3.45201 20.9448 3.45201ZM24.1595 6.09492C23.5261 6.09492 23.1157 5.63178 23.1157 5.00301C23.1157 4.34768 23.5349 3.88049 24.1953 3.88049C24.8195 3.88049 25.2392 4.32158 25.2392 4.96835C25.2392 5.63178 24.8067 6.09492 24.1595 6.09492ZM24.1779 4.22526C23.8299 4.22526 23.607 4.54392 23.607 4.98951C23.607 5.42654 23.8345 5.7452 24.1733 5.7452C24.512 5.7452 24.7395 5.40449 24.7395 4.9805C24.7395 4.54842 24.5166 4.22526 24.1779 4.22526ZM28.8509 3.92415L28.173 6.04676H27.7313L27.4504 5.12498C27.3806 4.89951 27.3225 4.67072 27.2762 4.4395H27.2671C27.2317 4.67084 27.1646 4.90264 27.0933 5.12498L26.7946 6.04676H26.3483L25.7103 3.92415H26.2053L26.4507 4.93324C26.5087 5.17359 26.5574 5.40043 26.5978 5.61468H26.607C26.6424 5.43599 26.7003 5.21275 26.7854 4.93775L27.0933 3.9246H27.4858L27.7805 4.91614C27.8517 5.15649 27.9096 5.39233 27.9547 5.61513H27.9675C27.9988 5.39683 28.048 5.16504 28.1146 4.91614L28.378 3.9246L28.8509 3.92415ZM31.3467 6.04676H30.865V4.82792C30.865 4.45255 30.7179 4.26442 30.4279 4.26442C30.1425 4.26442 29.9462 4.50476 29.9462 4.78427V6.04676H29.4645V4.53087C29.4645 4.34318 29.4599 4.14199 29.4466 3.9237H29.8704L29.8929 4.25136H29.9062C30.0359 4.02452 30.2988 3.88049 30.5934 3.88049C31.0484 3.88049 31.3472 4.22121 31.3472 4.77571L31.3467 6.04676ZM32.6751 6.04676H32.1929V2.95016H32.6751V6.04676ZM34.4313 6.09492C33.7984 6.09492 33.3875 5.63178 33.3875 5.00301C33.3875 4.34768 33.8067 3.88049 34.4667 3.88049C35.0913 3.88049 35.5105 4.32158 35.5105 4.96835C35.511 5.63178 35.078 6.09492 34.4313 6.09492ZM34.4492 4.22526C34.1013 4.22526 33.8784 4.54392 33.8784 4.98951C33.8784 5.42654 34.1063 5.7452 34.4442 5.7452C34.7834 5.7452 35.0104 5.40449 35.0104 4.9805C35.0109 4.54842 34.7884 4.22526 34.4492 4.22526ZM37.4097 6.04676L37.3748 5.80236H37.3619C37.2148 5.99905 37.0002 6.09492 36.7281 6.09492C36.3397 6.09492 36.0639 5.82847 36.0639 5.4702C36.0639 4.9463 36.5277 4.67535 37.3306 4.67535V4.63619C37.3306 4.35668 37.1794 4.21671 36.8807 4.21671C36.6669 4.21671 36.4794 4.26937 36.3144 4.37424L36.2165 4.06413C36.4169 3.9417 36.6669 3.88049 36.9606 3.88049C37.5269 3.88049 37.8128 4.17305 37.8128 4.75861V5.54041C37.8128 5.75465 37.8224 5.92073 37.8441 6.04721L37.4097 6.04676ZM37.3435 4.98951C36.8085 4.98951 36.5401 5.11643 36.5401 5.41754C36.5401 5.64033 36.6784 5.74925 36.8706 5.74925C37.1155 5.74925 37.3435 5.56607 37.3435 5.31717V4.98951ZM40.1519 6.04676L40.1293 5.70604H40.116C39.9777 5.96349 39.7451 6.09492 39.4201 6.09492C38.8975 6.09492 38.5105 5.64483 38.5105 5.01156C38.5105 4.34768 38.9118 3.88004 39.4597 3.88004C39.7497 3.88004 39.9551 3.97591 40.071 4.16855H40.0806V2.95016H40.5628V5.4747C40.5628 5.67994 40.5678 5.87212 40.5807 6.04676H40.1519ZM40.0806 4.79777C40.0806 4.50071 39.8798 4.24731 39.5732 4.24731C39.216 4.24731 38.9977 4.55742 38.9977 4.99401C38.9977 5.42204 39.2243 5.71504 39.5635 5.71504C39.8664 5.71504 40.0806 5.45715 40.0806 5.15154V4.79777ZM43.6198 6.09492C42.9869 6.09492 42.5764 5.63178 42.5764 5.00301C42.5764 4.34768 42.9956 3.88049 43.6556 3.88049C44.2802 3.88049 44.6994 4.32158 44.6994 4.96835C44.6999 5.63178 44.2674 6.09492 43.6198 6.09492ZM43.6377 4.22526C43.2902 4.22526 43.0673 4.54392 43.0673 4.98951C43.0673 5.42654 43.2948 5.7452 43.6331 5.7452C43.9723 5.7452 44.1994 5.40449 44.1994 4.9805C44.2003 4.54842 43.9774 4.22526 43.6377 4.22526ZM47.2899 6.04676H46.8078V4.82792C46.8078 4.45255 46.6607 4.26442 46.3706 4.26442C46.0852 4.26442 45.8894 4.50476 45.8894 4.78427V6.04676H45.4073V4.53087C45.4073 4.34318 45.4027 4.14199 45.3893 3.9237H45.8131L45.8356 4.25136H45.849C45.9781 4.02452 46.2415 3.88004 46.5357 3.88004C46.9907 3.88004 47.2899 4.22076 47.2899 4.77526V6.04676ZM50.5308 4.27792H50.0008V5.30862C50.0008 5.57102 50.0936 5.70199 50.2812 5.70199C50.3662 5.70199 50.4374 5.69299 50.4949 5.67994L50.5082 6.03821C50.4149 6.07331 50.2899 6.09087 50.1346 6.09087C49.7549 6.09087 49.5278 5.88563 49.5278 5.34822V4.27792H49.2116V3.92415H49.5278V3.53528L50.0008 3.3953V3.9237H50.5308V4.27792ZM53.0808 6.04676H52.5995V4.83693C52.5995 4.45705 52.4529 4.26487 52.1624 4.26487C51.9129 4.26487 51.6803 4.43095 51.6803 4.76716V6.04676H51.1991V2.95016H51.6803V4.22526H51.6899C51.8416 3.99391 52.0613 3.88004 52.3417 3.88004C52.8004 3.88004 53.0808 4.22931 53.0808 4.78427V6.04676ZM55.6933 5.09888H54.2478C54.257 5.5008 54.5286 5.72765 54.9308 5.72765C55.1445 5.72765 55.3412 5.69254 55.515 5.62728L55.5899 5.95494C55.3849 6.04226 55.1436 6.08592 54.8628 6.08592C54.1848 6.08592 53.7836 5.66644 53.7836 5.01606C53.7836 4.36524 54.1945 3.87599 54.8085 3.87599C55.3624 3.87599 55.7099 4.27792 55.7099 4.88509C55.713 4.95674 55.7074 5.0285 55.6933 5.09888ZM55.2516 4.76266C55.2516 4.435 55.0829 4.20366 54.775 4.20366C54.4983 4.20366 54.2795 4.4395 54.2482 4.76266H55.2516Z" fill="white"/>
</g>
<defs>
<linearGradient id="paint0_linear_178_409" x1="45.4845" y1="18.047" x2="45.4845" y2="-46.8642" gradientUnits="userSpaceOnUse">
<stop stop-color="#1A1A1A" stop-opacity="0.1"/>
<stop offset="0.123" stop-color="#212121" stop-opacity="0.151"/>
<stop offset="0.308" stop-color="#353535" stop-opacity="0.227"/>
<stop offset="0.532" stop-color="#575757" stop-opacity="0.318"/>
<stop offset="0.783" stop-color="#858585" stop-opacity="0.421"/>
<stop offset="1" stop-color="#B3B3B3" stop-opacity="0.51"/>
</linearGradient>
<clipPath id="clip0_178_409">
<rect width="62" height="18" fill="white"/>
</clipPath>
</defs>
</svg>
