<svg width="34" height="34" viewBox="0 0 34 34" fill="none" xmlns="http://www.w3.org/2000/svg">
<g clip-path="url(#clip0_431_5097)">
<path d="M17 3.1875C14.2682 3.1875 11.5976 3.99759 9.32619 5.51533C7.05474 7.03306 5.28436 9.19028 4.23892 11.7142C3.19348 14.2381 2.91995 17.0153 3.45291 19.6947C3.98587 22.374 5.30138 24.8352 7.23309 26.7669C9.16481 28.6986 11.626 30.0141 14.3053 30.5471C16.9847 31.0801 19.7619 30.8065 22.2858 29.7611C24.8097 28.7157 26.9669 26.9453 28.4847 24.6738C30.0024 22.4024 30.8125 19.7319 30.8125 17C30.8086 13.3379 29.3522 9.82687 26.7626 7.23736C24.1731 4.64785 20.6621 3.19137 17 3.1875ZM22.0017 20.4983C22.1004 20.597 22.1787 20.7142 22.2322 20.8432C22.2856 20.9722 22.3131 21.1104 22.3131 21.25C22.3131 21.3896 22.2856 21.5278 22.2322 21.6568C22.1787 21.7858 22.1004 21.903 22.0017 22.0017C21.903 22.1004 21.7858 22.1787 21.6568 22.2322C21.5279 22.2856 21.3896 22.3131 21.25 22.3131C21.1104 22.3131 20.9722 22.2856 20.8432 22.2322C20.7142 22.1787 20.597 22.1004 20.4983 22.0017L17 18.5021L13.5017 22.0017C13.403 22.1004 13.2858 22.1787 13.1568 22.2322C13.0279 22.2856 12.8896 22.3131 12.75 22.3131C12.6104 22.3131 12.4722 22.2856 12.3432 22.2322C12.2142 22.1787 12.097 22.1004 11.9983 22.0017C11.8996 21.903 11.8213 21.7858 11.7678 21.6568C11.7144 21.5278 11.6869 21.3896 11.6869 21.25C11.6869 21.1104 11.7144 20.9722 11.7678 20.8432C11.8213 20.7142 11.8996 20.597 11.9983 20.4983L15.4979 17L11.9983 13.5017C11.7989 13.3024 11.6869 13.0319 11.6869 12.75C11.6869 12.4681 11.7989 12.1976 11.9983 11.9983C12.1977 11.7989 12.4681 11.6869 12.75 11.6869C13.032 11.6869 13.3024 11.7989 13.5017 11.9983L17 15.4979L20.4983 11.9983C20.597 11.8996 20.7142 11.8213 20.8432 11.7678C20.9722 11.7144 21.1104 11.6869 21.25 11.6869C21.3896 11.6869 21.5279 11.7144 21.6568 11.7678C21.7858 11.8213 21.903 11.8996 22.0017 11.9983C22.1004 12.097 22.1787 12.2142 22.2322 12.3432C22.2856 12.4722 22.3131 12.6104 22.3131 12.75C22.3131 12.8896 22.2856 13.0278 22.2322 13.1568C22.1787 13.2858 22.1004 13.403 22.0017 13.5017L18.5021 17L22.0017 20.4983Z" fill="#EA9215"/>
</g>
<defs>
<clipPath id="clip0_431_5097">
<rect width="34" height="34" fill="white"/>
</clipPath>
</defs>
</svg>
