<svg width="38" height="43" viewBox="0 0 38 43" fill="none" xmlns="http://www.w3.org/2000/svg">
<path d="M38 30.1V2.15C38 0.80625 37.1857 0 35.8286 0H8.14286C3.52857 0 0 3.49375 0 8.0625V34.9375C0 39.5062 3.52857 43 8.14286 43H35.8286C36.9143 43 38 42.1937 38 40.85V39.5062C38 38.9688 37.7286 38.4313 37.1857 37.8937C36.9143 36.55 36.9143 32.7875 37.1857 31.7125C37.7286 31.4438 38 30.9062 38 30.1ZM12.2143 12.0938C12.2143 11.3547 12.825 10.75 13.5714 10.75H17.6429V6.71875C17.6429 5.97969 18.2536 5.375 19 5.375H21.7143C22.4607 5.375 23.0714 5.97969 23.0714 6.71875V10.75H27.1429C27.8893 10.75 28.5 11.3547 28.5 12.0938V14.7812C28.5 15.5203 27.8893 16.125 27.1429 16.125H23.0714V25.5312C23.0714 26.2703 22.4607 26.875 21.7143 26.875H19C18.2536 26.875 17.6429 26.2703 17.6429 25.5312V16.125H13.5714C12.825 16.125 12.2143 15.5203 12.2143 14.7812V12.0938ZM32.3 37.625H8.14286C6.51429 37.625 5.42857 36.55 5.42857 34.9375C5.42857 33.325 6.78571 32.25 8.14286 32.25H32.3V37.625Z" fill="white"/>
</svg>
