<svg width="16" height="17" viewBox="0 0 16 17" fill="none" xmlns="http://www.w3.org/2000/svg">
<path d="M8.0001 0.942871C3.7606 0.942871 0.325684 4.34608 0.325684 8.54643C0.325684 12.7468 3.7606 16.15 8.0001 16.15C12.2396 16.15 15.6745 12.7468 15.6745 8.54643C15.6745 4.34608 12.2396 0.942871 8.0001 0.942871ZM11.7692 6.15192L10.5098 12.0324C10.4169 12.4494 10.1663 12.5506 9.81659 12.3543L7.89798 10.9532L6.97272 11.8362C6.8706 11.9374 6.78395 12.0232 6.58591 12.0232L6.72206 10.0886L10.2777 6.90615C10.4324 6.77125 10.2436 6.6946 10.0394 6.8295L5.64517 9.57046L3.75132 8.98486C3.33975 8.85609 3.33047 8.57709 3.83797 8.38087L11.237 5.55406C11.5805 5.43142 11.8806 5.63684 11.7692 6.15192Z" fill="#EA9215"/>
</svg>
