<svg width="60" height="18" viewBox="0 0 60 18" fill="none" xmlns="http://www.w3.org/2000/svg">
<path d="M60 16.2083C60.0003 16.4451 59.9558 16.6797 59.8692 16.8983C59.7825 17.117 59.6554 17.3154 59.4951 17.482C59.3349 17.6486 59.1447 17.7802 58.9356 17.8691C58.7266 17.9579 58.5028 18.0023 58.2773 17.9997H1.68192C1.45975 18.004 1.23904 17.9613 1.033 17.8739C0.826959 17.7866 0.639827 17.6564 0.482815 17.4913C0.325802 17.3262 0.202139 17.1296 0.119234 16.9131C0.0363286 16.6966 -0.00411345 16.4648 0.000330238 16.2315V1.76297C-0.00381552 1.53003 0.0368704 1.29861 0.119949 1.08259C0.203028 0.86656 0.326789 0.670371 0.483814 0.505781C0.640839 0.341191 0.827895 0.211587 1.03377 0.12474C1.23964 0.037892 1.4601 -0.0044119 1.68192 0.00036364H58.2773C59.2327 0.00036364 59.9916 0.762959 59.9916 1.76536V16.2339L60 16.2083Z" fill="#1C1A16"/>
<mask id="mask0_178_363" style="mask-type:luminance" maskUnits="userSpaceOnUse" x="6" y="3" width="7" height="13">
<path d="M6.59267 3.90923V15.1675C6.58617 15.2217 6.5969 15.2766 6.62319 15.3238C6.64949 15.3709 6.68987 15.4076 6.73807 15.4281L12.4474 9.48561L6.78527 3.58868C6.67184 3.62226 6.59267 3.73017 6.59267 3.90843" fill="white"/>
</mask>
<g mask="url(#mask0_178_363)">
<path d="M12.446 3.58868H6.59277V15.4257H12.446V3.58868Z" fill="url(#paint0_linear_178_363)"/>
</g>
<mask id="mask1_178_363" style="mask-type:luminance" maskUnits="userSpaceOnUse" x="6" y="3" width="9" height="7">
<path d="M6.78528 3.58868L12.4459 9.4824L14.0179 7.8453L11.658 6.41284L11.6458 6.40564H11.6397H11.6344H11.6283L7.08445 3.64143C7.01812 3.6013 6.94326 3.57931 6.86673 3.57748C6.83923 3.5775 6.81185 3.58126 6.78528 3.58868Z" fill="white"/>
</mask>
<g mask="url(#mask1_178_363)">
<path d="M14.0179 3.57748H6.78528V9.4824H14.0179V3.57748Z" fill="url(#paint1_linear_178_363)"/>
</g>
<mask id="mask2_178_363" style="mask-type:luminance" maskUnits="userSpaceOnUse" x="6" y="9" width="9" height="7">
<path d="M6.73804 15.4281C6.77916 15.4398 6.82216 15.4422 6.86425 15.4353C6.90635 15.4285 6.94659 15.4124 6.9824 15.3881L7.64316 14.9885L11.6549 12.5504L12.8364 11.831L14.0178 11.1115L12.4458 9.47522L6.73804 15.4281Z" fill="white"/>
</mask>
<g mask="url(#mask2_178_363)">
<path d="M14.0178 9.48242H6.73804V15.4489H14.0178V9.48242Z" fill="url(#paint2_linear_178_363)"/>
</g>
<mask id="mask3_178_363" style="mask-type:luminance" maskUnits="userSpaceOnUse" x="12" y="7" width="5" height="5">
<path d="M12.4459 9.48241L14.0179 11.1187L15.7459 10.0715L16.2894 9.7422C16.5467 9.58233 16.5315 9.3737 16.3267 9.2442L16.3123 9.2362L16.3054 9.23141C16.0953 9.1131 14.2798 8.00518 14.0438 7.86049L14.0179 7.84531L12.4459 9.48241Z" fill="white"/>
</mask>
<g mask="url(#mask3_178_363)">
<path d="M16.5467 7.84531H12.4459V11.1195H16.5467V7.84531Z" fill="url(#paint3_linear_178_363)"/>
</g>
<path d="M43.4421 11.8645C43.2351 11.8673 43.0299 11.824 42.84 11.7374C42.6574 11.6509 42.4998 11.5152 42.3833 11.3441H42.346C42.3702 11.5392 42.3826 11.7357 42.3833 11.9325V13.3913H41.8687V8.25536H42.2843L42.3543 8.74058H42.3794C42.4945 8.56131 42.6519 8.41644 42.8362 8.32011C43.0247 8.23062 43.2299 8.18638 43.4368 8.19062C43.8844 8.19062 44.2298 8.35049 44.4729 8.67024C44.716 8.98998 44.8378 9.44056 44.8383 10.022C44.8383 10.6039 44.7147 11.0569 44.4675 11.3809C44.2204 11.7049 43.8768 11.8648 43.4368 11.8605M43.3607 8.64306C43.0151 8.64306 42.7657 8.74324 42.6124 8.94362C42.4591 9.14399 42.38 9.46374 42.3749 9.90286V10.022C42.3749 10.5197 42.454 10.8762 42.6124 11.0915C42.7707 11.3068 43.0245 11.4134 43.3736 11.4113C43.5085 11.4158 43.6423 11.3841 43.7623 11.319C43.8822 11.254 43.9842 11.1578 44.0588 11.0396C44.2237 10.7918 44.3064 10.4499 44.3069 10.014C44.3074 9.57805 44.2247 9.23912 44.0588 8.99718C43.9796 8.88201 43.8745 8.78933 43.7527 8.72751C43.631 8.66569 43.4965 8.63667 43.3614 8.64306" fill="#FBFBFB"/>
<path d="M46.0265 6.76776H45.5157V11.8006H46.0265V6.76776Z" fill="#FBFBFB"/>
<path d="M48.9665 11.7998L48.8652 11.2954H48.8401C48.7095 11.4864 48.5379 11.6424 48.3392 11.751C48.1402 11.8355 47.9266 11.8755 47.712 11.8685C47.3775 11.8685 47.1154 11.7782 46.9256 11.5975C46.7358 11.4169 46.6406 11.1592 46.6401 10.8245C46.6401 10.1083 47.1854 9.73313 48.276 9.69903L48.8485 9.67904V9.45922C48.8485 9.18104 48.7922 8.9796 48.678 8.8429C48.5638 8.70621 48.3811 8.64466 48.1314 8.64466C47.8498 8.64466 47.5313 8.73499 47.1761 8.91565L47.0192 8.50557C47.1921 8.40799 47.3757 8.33284 47.5658 8.28175C47.7605 8.22877 47.9608 8.20191 48.1619 8.20181C48.5646 8.20181 48.8622 8.29534 49.0571 8.48319C49.252 8.67104 49.3479 8.9716 49.3479 9.38567V11.8046L48.9665 11.7998ZM47.8117 11.4217C48.1299 11.4217 48.3798 11.33 48.5615 11.1467C48.7432 10.9634 48.834 10.7068 48.834 10.3769V10.0571L48.3225 10.0795C47.9165 10.0944 47.6234 10.1608 47.4432 10.2786C47.3553 10.3358 47.2837 10.417 47.2363 10.5136C47.1888 10.6102 47.1672 10.7185 47.1738 10.8269C47.1684 10.9095 47.1807 10.9923 47.2099 11.0692C47.239 11.1461 47.2841 11.2152 47.342 11.2714C47.4757 11.3804 47.6427 11.4344 47.8117 11.4233" fill="#FBFBFB"/>
<path d="M49.6425 8.25537H50.1906L50.9274 10.277C51.0501 10.6025 51.1519 10.9363 51.2319 11.2762H51.2563C51.2829 11.1659 51.3393 10.978 51.4238 10.7118C51.5083 10.4456 51.7876 9.62708 52.2611 8.25537H52.8092L51.3583 12.2914C51.2147 12.6905 51.0467 12.9738 50.8544 13.1411C50.6552 13.3111 50.4044 13.3999 50.1479 13.3913C49.9924 13.3913 49.8374 13.3728 49.6858 13.3361V12.9061C49.811 12.9337 49.9386 12.9468 50.0665 12.9453C50.4177 12.9453 50.6681 12.7382 50.8178 12.3241L51.0058 11.8197L49.6425 8.25537Z" fill="#FBFBFB"/>
<path d="M33.9708 8.58473C34.1329 8.72541 34.4717 9.02198 34.4717 9.58553C34.4717 10.1339 34.1756 10.3945 33.8787 10.6383C33.7866 10.735 33.6815 10.8389 33.6815 11.002C33.6815 11.1651 33.7866 11.2538 33.865 11.3218L34.1192 11.5288C34.4298 11.803 34.7122 12.0556 34.7122 12.568C34.7122 13.265 34.0697 13.9693 32.8556 13.9693C31.8317 13.9693 31.3376 13.4577 31.3376 12.9085C31.3376 12.6415 31.464 12.2642 31.8812 12.0036C32.3181 11.7222 32.9119 11.6839 33.2293 11.6631C33.1304 11.5296 33.0177 11.3889 33.0177 11.1595C33.0198 11.0586 33.044 10.9596 33.0885 10.8701C33.0124 10.8773 32.9325 10.8845 32.8601 10.8845C32.1126 10.8845 31.6886 10.2986 31.6886 9.72063C31.6922 9.53073 31.7344 9.34384 31.8124 9.17247C31.8903 9.00111 32.0023 8.84923 32.1408 8.72701C32.5427 8.37849 33.023 8.31934 33.4044 8.31934H34.8584L34.4085 8.58473H33.9708ZM33.4691 11.8765C33.4153 11.8702 33.3611 11.8678 33.307 11.8693C33.0559 11.8743 32.8066 11.9143 32.5655 11.9884C32.4133 12.0468 31.9565 12.2282 31.9565 12.7518C31.9565 13.2754 32.4437 13.6567 33.1989 13.6567C33.8764 13.6567 34.2372 13.3146 34.2372 12.8573C34.2372 12.4784 34.0043 12.2786 33.4668 11.8781M33.6724 10.4696C33.8345 10.2986 33.8482 10.062 33.8482 9.92846C33.8482 9.39448 33.5437 8.56394 32.9591 8.56394C32.8648 8.56536 32.7719 8.58792 32.6865 8.63011C32.6012 8.67229 32.5254 8.73313 32.4643 8.80855C32.3553 8.96798 32.3016 9.16177 32.312 9.35771C32.312 9.85412 32.5876 10.6775 33.1951 10.6775C33.3741 10.6728 33.5452 10.5988 33.6754 10.4696" fill="#FBFBFB"/>
<path d="M29.5259 11.7582C28.4054 11.7582 27.8063 10.8405 27.8063 10.0108C27.8063 9.04116 28.5599 8.21301 29.6333 8.21301C29.854 8.20786 30.0735 8.24935 30.2787 8.33502C30.4839 8.42069 30.6707 8.54879 30.8278 8.71171C30.9849 8.87463 31.1093 9.06905 31.1935 9.28343C31.2777 9.4978 31.32 9.72775 31.3179 9.95963C31.3179 10.8325 30.6769 11.7582 29.5274 11.7582M30.4082 11.1587C30.578 10.9189 30.6206 10.6255 30.6206 10.3369C30.6206 9.68545 30.3245 8.44163 29.4498 8.44163C29.2167 8.44407 28.992 8.5333 28.8157 8.69343C28.5409 8.95243 28.4914 9.27857 28.4914 9.59672C28.4914 10.3289 28.837 11.5352 29.6896 11.5352C29.829 11.5351 29.9664 11.5011 30.0911 11.4358C30.2158 11.3705 30.3244 11.2756 30.4082 11.1587Z" fill="#FBFBFB"/>
<path d="M25.7052 11.7582C24.5846 11.7582 23.9847 10.8405 23.9847 10.0108C23.9847 9.04116 24.7399 8.21301 25.8117 8.21301C26.0325 8.20786 26.252 8.24935 26.4572 8.33502C26.6624 8.42069 26.8491 8.54879 27.0063 8.71171C27.1634 8.87463 27.2878 9.06905 27.372 9.28343C27.4561 9.4978 27.4985 9.72775 27.4964 9.95963C27.4964 10.8325 26.8554 11.7582 25.7059 11.7582M26.5874 11.1587C26.7564 10.9189 26.7983 10.6255 26.7983 10.3369C26.7983 9.68545 26.5022 8.44163 25.6283 8.44163C25.3952 8.44407 25.1705 8.5333 24.9941 8.69343C24.7193 8.95243 24.6699 9.27857 24.6699 9.59672C24.6699 10.3289 25.0147 11.5352 25.8681 11.5352C26.0075 11.5352 26.1451 11.5011 26.2699 11.4358C26.3948 11.3705 26.5034 11.2756 26.5874 11.1587Z" fill="#FBFBFB"/>
<path d="M23.4466 11.6423L22.4334 11.8877C22.0474 11.9618 21.6564 12.004 21.2641 12.014C19.3077 12.014 18.5632 10.5032 18.5632 9.32014C18.5632 7.87648 19.6198 6.53674 21.427 6.53674C21.7936 6.53877 22.1582 6.59254 22.511 6.69662C22.8476 6.78609 23.165 6.94149 23.4466 7.15465L22.8582 7.74219L22.6092 7.80214L22.7866 7.50398C22.5461 7.25857 22.1061 6.80453 21.2702 6.80453C20.1504 6.80453 19.307 7.69822 19.307 9.00039C19.307 10.3993 20.2707 11.7182 21.8153 11.7182C22.1248 11.7262 22.4323 11.6627 22.7158 11.532V10.3329L21.6455 10.3921L22.2126 10.0723H23.7146L23.5311 10.2578C23.512 10.2714 23.4958 10.289 23.4835 10.3095C23.4712 10.33 23.4631 10.353 23.4595 10.3769C23.4527 10.444 23.4458 10.6607 23.4458 10.7342L23.4466 11.6423Z" fill="#FBFBFB"/>
<path d="M36.2111 11.4313C35.9766 11.4089 35.9279 11.3641 35.9279 11.0732V6.85809C35.9279 6.8421 35.9279 6.82612 35.9317 6.81013C35.9606 6.55034 36.0314 6.50557 36.2514 6.37128H35.2375L34.7046 6.63907H35.2458V11.2346C35.2458 11.3825 35.2184 11.4057 35.0548 11.6287H36.3116L36.5742 11.4688C36.4539 11.4528 36.3329 11.4457 36.2126 11.4313" fill="#FBFBFB"/>
<path d="M39.0947 11.496C39.0186 11.5408 38.9425 11.5927 38.8664 11.6295C38.6501 11.7269 38.4165 11.7746 38.1813 11.7694C37.8474 11.7852 37.518 11.6839 37.2449 11.4816C36.7455 11.1115 36.5278 10.476 36.5278 9.92204C36.5278 8.77655 37.4139 8.21459 38.1394 8.21459C38.3949 8.21123 38.6461 8.28294 38.8648 8.42163C39.1108 8.59157 39.2864 8.85283 39.3566 9.15305L37.7032 9.85569L37.1612 9.89965C37.3363 10.8381 37.9422 11.3849 38.6075 11.3849C38.9669 11.3849 39.2272 11.2522 39.4662 11.1267L39.0947 11.496ZM38.4332 9.29374C38.5672 9.24178 38.6372 9.19701 38.6372 9.09389C38.6372 8.79893 38.3206 8.4544 37.9407 8.4544C37.6583 8.4544 37.1307 8.68382 37.1307 9.48159C37.1307 9.60709 37.1452 9.74058 37.1528 9.87407L38.4332 9.29374Z" fill="#FBFBFB"/>
<path d="M39.7746 8.26499V8.7534H39.7175V8.26499H39.5645V8.21463H39.9276V8.26499H39.7746Z" fill="#FBFBFB"/>
<path d="M40.4071 8.7534V8.26099H40.4048L40.2617 8.7534H40.2175L40.0729 8.26099H40.0714V8.7534H40.0204V8.21463H40.1079L40.2389 8.64949H40.2404L40.369 8.21463H40.4581V8.7534H40.4071Z" fill="#FBFBFB"/>
<path d="M19.9715 5.08748H19.619C19.598 4.94069 19.5644 4.79621 19.5185 4.65582H19.01C18.9622 4.79581 18.9275 4.94039 18.9065 5.08748H18.5746C18.5746 5.05817 18.6601 4.8117 18.8311 4.34806C19.0021 3.88443 19.0879 3.62943 19.0884 3.58307H19.5041C19.5041 3.62677 19.5817 3.87804 19.737 4.33687C19.8923 4.79571 19.9699 5.04591 19.9699 5.08748M19.4614 4.43519C19.3882 4.22365 19.3252 4.00834 19.2726 3.7901H19.2597C19.2051 4.00843 19.1401 4.22373 19.0648 4.43519H19.4614Z" fill="#FCFCFD"/>
<path d="M21.3912 5.08749H21.1195C21.1195 5.05605 21.018 4.88925 20.815 4.58709C20.6041 4.26734 20.4831 4.05151 20.4541 3.9348H20.4366C20.4539 4.08656 20.463 4.23921 20.464 4.39204C20.464 4.58229 20.4691 4.81411 20.4793 5.08749H20.2083C20.2194 4.84928 20.225 4.58709 20.225 4.30091C20.225 4.01474 20.2194 3.77493 20.2083 3.58148H20.5356C20.5356 3.62198 20.6262 3.78505 20.8074 4.07069C21.0002 4.37285 21.1108 4.57803 21.1393 4.68621H21.156C21.1396 4.53278 21.131 4.37856 21.1301 4.22417C21.1301 4.0158 21.1248 3.80264 21.1141 3.58468H21.3912C21.3806 3.77573 21.3752 4.01554 21.3752 4.30411C21.3752 4.59268 21.3806 4.85567 21.3912 5.09069" fill="#FCFCFD"/>
<path d="M22.9853 4.28332C22.9882 4.49377 22.9169 4.6979 22.7851 4.85647C22.7152 4.9391 22.6284 5.00408 22.5313 5.04657C22.4341 5.08907 22.3291 5.10797 22.224 5.10188C22.1149 5.10188 21.9652 5.09708 21.7749 5.08749C21.784 4.85487 21.7894 4.59268 21.7894 4.30091C21.7894 4.00914 21.784 3.78132 21.7749 3.58148H21.9675C21.9987 3.58148 22.0436 3.58148 22.1083 3.58148L22.2301 3.57748C22.495 3.57748 22.6871 3.64703 22.8064 3.78612C22.9246 3.9222 22.9887 4.10074 22.9853 4.28492M22.6846 4.33528C22.6887 4.1989 22.6448 4.06571 22.5613 3.96118C22.5134 3.90792 22.4548 3.86663 22.3897 3.84034C22.3246 3.81406 22.2547 3.80345 22.1852 3.8093C22.1417 3.81007 22.0982 3.81354 22.055 3.81969C22.0627 3.97317 22.0665 4.13464 22.0665 4.29931C22.0665 4.48317 22.0703 4.66622 22.0771 4.84688C22.1242 4.85707 22.1722 4.86216 22.2202 4.86207C22.2862 4.86748 22.3524 4.8563 22.4135 4.82947C22.4745 4.80264 22.5285 4.76093 22.5712 4.70779C22.6482 4.59956 22.6882 4.46716 22.6846 4.33209" fill="#FCFCFD"/>
<path d="M24.456 5.08749H24.1318C24.0857 4.91184 24.0201 4.74252 23.9361 4.58309C23.9096 4.54962 23.8757 4.5234 23.8374 4.50669C23.799 4.48998 23.7574 4.48329 23.7161 4.48717H23.5936C23.5936 4.68541 23.5936 4.88685 23.6034 5.08669H23.299C23.3086 4.85381 23.3134 4.59162 23.3134 4.30012C23.3134 4.01981 23.3086 3.78 23.299 3.58069H23.4893H23.6278C23.6978 3.58069 23.7625 3.57669 23.8219 3.57669C24.1584 3.57669 24.3266 3.69793 24.3266 3.9404C24.3266 4.13145 24.2307 4.26574 24.0389 4.34009V4.35767C24.1238 4.3893 24.1937 4.45437 24.2338 4.53913C24.3227 4.71574 24.399 4.89903 24.4621 5.08749M24.0495 4.02434C24.0495 3.87139 23.9556 3.79492 23.7679 3.79492C23.7066 3.79432 23.6455 3.79967 23.5852 3.8109C23.5928 3.93001 23.5974 4.08589 23.5974 4.27773H23.6994C23.9333 4.27773 24.05 4.19247 24.0495 4.02194" fill="#FCFCFD"/>
<path d="M26.0348 4.30809C26.042 4.52489 25.9676 4.73594 25.8278 4.89562C25.7635 4.97084 25.6845 5.03062 25.5962 5.0709C25.508 5.11118 25.4125 5.13101 25.3162 5.12904C25.2254 5.13121 25.1351 5.11325 25.0513 5.07634C24.9675 5.03943 24.892 4.98439 24.8298 4.91481C24.7645 4.84216 24.7136 4.75664 24.6801 4.6632C24.6465 4.56976 24.6309 4.47025 24.6342 4.37044C24.6269 4.15338 24.7013 3.94203 24.8412 3.78211C24.9052 3.7073 24.9836 3.64777 25.0714 3.6075C25.1591 3.56724 25.254 3.54718 25.3497 3.54869C25.4405 3.54657 25.5307 3.56447 25.6145 3.60124C25.6983 3.638 25.7738 3.69281 25.8362 3.76212C25.902 3.83478 25.9535 3.92046 25.9876 4.01418C26.0217 4.1079 26.0378 4.20781 26.0348 4.30809ZM25.7303 4.34086C25.7365 4.19987 25.6949 4.06115 25.6131 3.94917C25.579 3.90228 25.5349 3.86431 25.4845 3.83824C25.434 3.81217 25.3785 3.79871 25.3223 3.79889C25.2685 3.79936 25.2156 3.81339 25.168 3.83983C25.1205 3.86626 25.0797 3.90431 25.049 3.95077C24.9715 4.06139 24.932 4.19641 24.9371 4.33367C24.9314 4.4745 24.9731 4.61294 25.0551 4.72456C25.089 4.77153 25.1327 4.80968 25.1828 4.83602C25.233 4.86236 25.2883 4.87619 25.3444 4.87644C25.3982 4.87604 25.4512 4.86203 25.4987 4.83559C25.5463 4.80916 25.5871 4.77107 25.6177 4.72456C25.6956 4.61379 25.7353 4.47848 25.7303 4.34086Z" fill="#FCFCFD"/>
<path d="M26.656 5.08749H26.3446C26.3537 4.84768 26.3591 4.58708 26.3591 4.30091C26.3591 4.01474 26.3537 3.78052 26.3446 3.58148H26.656C26.6458 3.77599 26.641 4.0158 26.6415 4.30091C26.642 4.58602 26.6468 4.84821 26.656 5.08749Z" fill="#FCFCFD"/>
<path d="M28.2508 4.28332C28.2537 4.49377 28.1824 4.6979 28.0506 4.85647C27.9807 4.93914 27.894 5.00416 27.7968 5.04665C27.6997 5.08915 27.5946 5.10803 27.4895 5.10188C27.3809 5.10188 27.2312 5.09708 27.0404 5.08749C27.0495 4.85487 27.0549 4.59268 27.0549 4.30091C27.0549 4.00914 27.0495 3.78132 27.0404 3.58148H27.233C27.2642 3.58148 27.3091 3.58148 27.3738 3.58148L27.4956 3.57748C27.7605 3.57748 27.9526 3.64703 28.0719 3.78612C28.1901 3.9222 28.2542 4.10074 28.2508 4.28492M27.9501 4.33528C27.9546 4.19884 27.9106 4.06552 27.8268 3.96118C27.779 3.90783 27.7204 3.86647 27.6552 3.84018C27.5901 3.81389 27.5202 3.80333 27.4507 3.8093C27.4074 3.81008 27.3642 3.81355 27.3213 3.81969C27.3282 3.97317 27.332 4.13464 27.332 4.29931C27.332 4.48317 27.332 4.66622 27.3434 4.84688C27.3902 4.85707 27.4379 4.86216 27.4857 4.86207C27.5517 4.86754 27.618 4.8564 27.679 4.82957C27.74 4.80273 27.7941 4.76098 27.8367 4.70779C27.914 4.59973 27.954 4.46722 27.9501 4.33209" fill="#FCFCFD"/>
<path d="M30.367 5.08748H30.0146C29.9936 4.94076 29.9603 4.7963 29.9149 4.65582H29.4064C29.3581 4.79569 29.3234 4.9403 29.3028 5.08748H28.9717C28.9717 5.05817 29.0572 4.8117 29.2282 4.34806C29.3992 3.88443 29.485 3.62943 29.4855 3.58307H29.9012C29.9012 3.62677 29.9788 3.87804 30.1341 4.33687C30.2894 4.79571 30.367 5.04591 30.367 5.08748ZM29.8585 4.43519C29.7853 4.22372 29.7225 4.0084 29.6705 3.7901H29.6522C29.6522 3.82048 29.5875 4.03471 29.4581 4.43519H29.8585Z" fill="#FCFCFD"/>
<path d="M31.6505 3.97716C31.6556 4.05729 31.6402 4.13738 31.6059 4.20918C31.5716 4.28098 31.5198 4.34189 31.4556 4.38563C31.3112 4.47697 31.1446 4.52249 30.9761 4.51673C30.9418 4.51673 30.9167 4.51673 30.8999 4.51673C30.8999 4.66221 30.904 4.85326 30.9121 5.08987H30.6023C30.6114 4.86765 30.6168 4.60546 30.6168 4.3033C30.6168 4.02592 30.6114 3.78691 30.6023 3.58387H30.7934C30.8208 3.58387 30.8695 3.58387 30.9502 3.58387C31.0309 3.58387 31.0941 3.57987 31.1504 3.57987C31.2758 3.57432 31.3998 3.60829 31.5067 3.67739C31.5538 3.70984 31.592 3.75481 31.6172 3.80774C31.6425 3.86066 31.654 3.91966 31.6505 3.97875M31.3666 4.0427C31.3666 3.87697 31.2625 3.79437 31.0545 3.7949C30.999 3.79509 30.9437 3.80098 30.8893 3.81249C30.8969 3.95797 30.9015 4.12264 30.9015 4.30729C30.9197 4.30729 30.941 4.30729 30.9646 4.30729C31.2326 4.30729 31.3666 4.21776 31.3666 4.04031" fill="#FCFCFD"/>
<path d="M32.9704 3.97717C32.9753 4.05728 32.9598 4.13731 32.9256 4.20908C32.8914 4.28084 32.8396 4.34178 32.7756 4.38564C32.631 4.47689 32.4645 4.52241 32.296 4.51674C32.2617 4.51674 32.2366 4.51674 32.2199 4.51674C32.2199 4.66222 32.2239 4.85327 32.232 5.08988H31.923C31.9321 4.86766 31.9374 4.60547 31.9374 4.30331C31.9374 4.02593 31.9321 3.78692 31.923 3.58388H32.114C32.1414 3.58388 32.1902 3.58388 32.2701 3.58388C32.35 3.58388 32.414 3.57988 32.4711 3.57988C32.5962 3.57459 32.7199 3.60854 32.8266 3.6774C32.8737 3.70986 32.9119 3.75482 32.9371 3.80775C32.9624 3.86067 32.9739 3.91967 32.9704 3.97877M32.6865 4.04271C32.6865 3.87698 32.5822 3.79438 32.3736 3.79491C32.3184 3.79514 32.2633 3.80103 32.2092 3.8125C32.2168 3.95798 32.2214 4.12265 32.2214 4.30731C32.2396 4.30731 32.261 4.30731 32.2846 4.30731C32.5525 4.30731 32.6865 4.21778 32.6865 4.04032" fill="#FCFCFD"/>
<path d="M35.1286 4.30809C35.1355 4.52484 35.0611 4.73576 34.9216 4.89562C34.8571 4.97104 34.7779 5.03095 34.6894 5.07123C34.6008 5.11152 34.505 5.13124 34.4085 5.12904C34.3176 5.13136 34.2273 5.11347 34.1435 5.07655C34.0596 5.03963 33.9842 4.98451 33.9221 4.91481C33.8567 4.84226 33.8057 4.75676 33.7721 4.66329C33.7385 4.56983 33.723 4.47027 33.7264 4.37044C33.7192 4.15353 33.7933 3.9423 33.9327 3.78211C33.9972 3.70691 34.0763 3.64716 34.1647 3.60688C34.2531 3.56661 34.3487 3.54677 34.4451 3.54869C34.5358 3.54657 34.626 3.56447 34.7098 3.60124C34.7936 3.638 34.8691 3.69281 34.9315 3.76212C34.9968 3.83504 35.0478 3.92084 35.0813 4.01455C35.1149 4.10826 35.1305 4.20803 35.1271 4.30809M34.8226 4.34086C34.8285 4.19977 34.7867 4.06104 34.7046 3.94917C34.6707 3.90225 34.6268 3.86425 34.5765 3.83817C34.5261 3.81209 34.4707 3.79864 34.4146 3.79889C34.3608 3.79929 34.3078 3.8133 34.2603 3.83974C34.2127 3.86618 34.1719 3.90426 34.1413 3.95077C34.0638 4.06139 34.0243 4.19641 34.0294 4.33367C34.0233 4.47454 34.0651 4.6131 34.1474 4.72456C34.1816 4.77197 34.2258 4.81037 34.2765 4.83673C34.3272 4.86309 34.3831 4.87669 34.4397 4.87644C34.4934 4.87605 34.5463 4.86203 34.5937 4.83559C34.6412 4.80915 34.6818 4.77106 34.7122 4.72456C34.7902 4.6144 34.8299 4.47959 34.8249 4.34246" fill="#FCFCFD"/>
<path d="M36.6199 5.08749H36.3481C36.3481 5.05605 36.2466 4.88925 36.0436 4.58709C35.832 4.26734 35.7117 4.04991 35.6828 3.9348H35.6645C35.682 4.08654 35.6914 4.23919 35.6927 4.39204C35.6927 4.58229 35.6972 4.81411 35.7079 5.08749H35.4369C35.4481 4.84928 35.4536 4.58709 35.4536 4.30091C35.4536 4.01474 35.4481 3.77493 35.4369 3.58148H35.7635C35.7635 3.62225 35.8548 3.78532 36.036 4.07069C36.2283 4.37285 36.339 4.57803 36.3679 4.68621H36.3877C36.3711 4.53279 36.3622 4.37857 36.361 4.22417C36.361 4.01554 36.3565 3.80131 36.3458 3.58468H36.6206C36.6107 3.77573 36.6054 4.01554 36.6054 4.30411C36.6054 4.59268 36.6107 4.85567 36.6206 5.09069" fill="#FCFCFD"/>
<defs>
<linearGradient id="paint0_linear_178_363" x1="9.80711" y1="3.34027" x2="9.80711" y2="15.529" gradientUnits="userSpaceOnUse">
<stop stop-color="#2079B0"/>
<stop offset="0.32" stop-color="#4A98B5"/>
<stop offset="0.78" stop-color="#81BFBC"/>
<stop offset="1" stop-color="#97CFBF"/>
</linearGradient>
<linearGradient id="paint1_linear_178_363" x1="6.64547" y1="6.79418" x2="14.0706" y2="6.79418" gradientUnits="userSpaceOnUse">
<stop stop-color="#5ABCAB"/>
<stop offset="1" stop-color="#E6E99A"/>
</linearGradient>
<linearGradient id="paint2_linear_178_363" x1="9.69639" y1="9.67265" x2="9.69639" y2="15.811" gradientUnits="userSpaceOnUse">
<stop stop-color="#E53432"/>
<stop offset="0.18" stop-color="#D43745"/>
<stop offset="0.73" stop-color="#A33E7C"/>
<stop offset="1" stop-color="#904192"/>
</linearGradient>
<linearGradient id="paint3_linear_178_363" x1="15.6061" y1="7.49339" x2="15.6061" y2="10.7676" gradientUnits="userSpaceOnUse">
<stop stop-color="#F18779"/>
<stop offset="0.64" stop-color="#F9B574"/>
<stop offset="1" stop-color="#FDCB72"/>
</linearGradient>
</defs>
</svg>
