<svg width="16" height="18" viewBox="0 0 16 18" fill="none" xmlns="http://www.w3.org/2000/svg">
<g clip-path="url(#clip0_198_924)">
<path d="M8.47351 4.70729C10.603 4.70729 12.3206 6.41993 12.3206 8.5432C12.3206 10.6665 10.603 12.3791 8.47351 12.3791C6.34405 12.3791 4.62641 10.6665 4.62641 8.5432C4.62641 6.41993 6.34405 4.70729 8.47351 4.70729ZM8.47351 11.037C9.84963 11.037 10.9746 9.91866 10.9746 8.5432C10.9746 7.16775 9.85297 6.04936 8.47351 6.04936C7.09405 6.04936 5.97239 7.16775 5.97239 8.5432C5.97239 9.91866 7.09739 11.037 8.47351 11.037ZM3.57172 4.55038C3.57172 5.04781 3.97351 5.44509 4.46904 5.44509C4.96793 5.44509 5.36637 5.04447 5.36637 4.55038C5.36637 4.05628 4.96458 3.65567 4.46904 3.65567C3.97351 3.65567 3.57172 4.05628 3.57172 4.55038ZM1.02373 5.45845C1.08065 4.25993 1.35521 3.19829 2.23579 2.32361C3.11302 1.44893 4.17775 1.17517 5.37976 1.11508C6.6186 1.04497 10.3318 1.04497 11.5706 1.11508C12.7693 1.17184 13.834 1.44559 14.7146 2.32027C15.5952 3.19495 15.8664 4.25659 15.9266 5.45511C15.9969 6.69034 15.9969 10.3927 15.9266 11.628C15.8697 12.8265 15.5952 13.8881 14.7146 14.7628C13.834 15.6375 12.7726 15.9112 11.5706 15.9713C10.3318 16.0414 6.6186 16.0414 5.37976 15.9713C4.17775 15.9146 3.11302 15.6408 2.23579 14.7628C1.35855 13.8881 1.084 12.8265 1.02373 11.628C0.95342 10.3927 0.95342 6.69368 1.02373 5.45845ZM2.62418 12.9533C2.88534 13.6077 3.39092 14.1118 4.05052 14.3755C5.03824 14.7661 7.38199 14.676 8.47351 14.676C9.56503 14.676 11.9121 14.7628 12.8965 14.3755C13.5528 14.1151 14.0583 13.611 14.3228 12.9533C14.7146 11.9685 14.6242 9.63155 14.6242 8.5432C14.6242 7.45486 14.7112 5.11458 14.3228 4.13307C14.0617 3.47873 13.5561 2.97461 12.8965 2.71087C11.9088 2.32027 9.56503 2.41041 8.47351 2.41041C7.38199 2.41041 5.03489 2.32361 4.05052 2.71087C3.39427 2.97128 2.88869 3.47539 2.62418 4.13307C2.23244 5.11792 2.32284 7.45486 2.32284 8.5432C2.32284 9.63155 2.23244 11.9718 2.62418 12.9533Z" fill="#EA9215"/>
</g>
<defs>
<clipPath id="clip0_198_924">
<rect width="15" height="17.093" fill="white" transform="matrix(-1 0 0 1 15.9768 0)"/>
</clipPath>
</defs>
</svg>
