<svg width="23" height="18" viewBox="0 0 23 18" fill="none" xmlns="http://www.w3.org/2000/svg">
<path d="M21.7979 6.17062C21.9672 6.03609 22.2189 6.16194 22.2189 6.37458V15.2491C22.2189 16.3991 21.2859 17.3321 20.1359 17.3321H2.08302C0.93302 17.3321 0 16.3991 0 15.2491V6.37892C0 6.16194 0.247359 6.04043 0.420944 6.17495C1.39302 6.93005 2.68189 7.88911 7.10831 11.1048C8.02397 11.7731 9.56888 13.1791 11.1094 13.1704C12.6587 13.1835 14.234 11.747 15.1149 11.1048C19.5413 7.88911 20.8259 6.92571 21.7979 6.17062ZM11.1094 11.7774C12.1162 11.7948 13.5657 10.5102 14.2947 9.98081C20.0534 5.80175 20.4917 5.43722 21.8196 4.39571C22.0713 4.20042 22.2189 3.89665 22.2189 3.57552V2.75099C22.2189 1.60099 21.2859 0.667969 20.1359 0.667969H2.08302C0.93302 0.667969 0 1.60099 0 2.75099V3.57552C0 3.89665 0.147547 4.19608 0.399246 4.39571C1.72717 5.43288 2.16547 5.80175 7.92416 9.98081C8.65321 10.5102 10.1026 11.7948 11.1094 11.7774Z" fill="white"/>
</svg>
