<svg width="16" height="16" viewBox="0 0 16 16" fill="none" xmlns="http://www.w3.org/2000/svg">
<path d="M12.0837 15.2659C9.0651 15.262 6.17125 14.0611 4.03677 11.9266C1.90229 9.79213 0.701422 6.89828 0.69751 3.87967C0.69751 2.97765 1.05584 2.11258 1.69366 1.47475C2.33149 0.836927 3.19656 0.4786 4.09858 0.4786C4.28959 0.477145 4.48028 0.49448 4.66789 0.530356C4.84927 0.557195 5.02757 0.60177 5.20024 0.663441C5.32167 0.70605 5.42989 0.77962 5.51418 0.876875C5.59846 0.97413 5.65591 1.0917 5.68082 1.21796L6.69375 5.65415C6.72105 5.77456 6.71776 5.8999 6.68419 6.01871C6.65061 6.13753 6.58781 6.24605 6.50152 6.33436C6.4054 6.43787 6.398 6.44527 5.48859 6.91846C6.21686 8.51612 7.49463 9.79914 9.08929 10.5339C9.56988 9.61714 9.57727 9.60974 9.68078 9.51363C9.76909 9.42733 9.87761 9.36453 9.99643 9.33095C10.1152 9.29738 10.2406 9.29409 10.361 9.32139L14.7972 10.3343C14.9194 10.3627 15.0324 10.4217 15.1255 10.5057C15.2186 10.5898 15.2889 10.6962 15.3295 10.8149C15.3919 10.9904 15.4389 11.171 15.47 11.3546C15.4998 11.5405 15.5146 11.7284 15.5144 11.9166C15.5007 12.8147 15.1323 13.671 14.4896 14.2985C13.8468 14.926 12.9819 15.2738 12.0837 15.2659Z" fill="#EEEEEE"/>
</svg>
