<svg width="34" height="30" viewBox="0 0 34 30" fill="none" xmlns="http://www.w3.org/2000/svg">
<path d="M1 2.34043C1 1.04784 2.04784 0 3.34043 0H31.6596C32.9522 0 34 1.04784 34 2.34043V26.7234C34 28.533 32.533 30 30.7234 30H3.34042C2.04784 30 1 28.9522 1 27.6596V2.34043Z" fill="#EA9215"/>
<path d="M16.3753 6.36014C12.5254 6.36014 9.39368 9.45541 9.39368 13.2604C9.39368 17.0655 12.5254 20.1607 16.3753 20.1607C17.5522 20.1607 18.7092 19.8847 19.6866 19.3524C19.7649 19.4455 19.8517 19.5313 19.9459 19.6087L21.9407 21.5802C22.1249 21.7851 22.3495 21.9505 22.6007 22.0665C22.852 22.1824 23.1245 22.2464 23.4017 22.2544C23.6788 22.2625 23.9547 22.2145 24.2124 22.1134C24.4701 22.0122 24.7042 21.8601 24.9003 21.6663C25.0963 21.4725 25.2502 21.2412 25.3526 20.9865C25.4549 20.7318 25.5035 20.4591 25.4953 20.1852C25.4871 19.9113 25.4224 19.6419 25.3051 19.3936C25.1878 19.1453 25.0204 18.9233 24.8131 18.7412L22.8184 16.7697C22.7212 16.6737 22.6143 16.5878 22.4992 16.5134C23.0378 15.5474 23.3769 14.4236 23.3769 13.2407C23.3769 9.4357 20.2451 6.34042 16.3953 6.34042L16.3753 6.36014ZM16.3753 8.33165C19.148 8.33165 21.3622 10.52 21.3622 13.2604C21.3622 14.5616 20.8835 15.7643 20.0457 16.6514C20.0257 16.6712 20.0058 16.6909 19.9858 16.7106C19.8916 16.788 19.8048 16.8738 19.7265 16.9669C18.8488 17.7555 17.652 18.2089 16.3554 18.2089C13.5827 18.2089 11.3685 16.0206 11.3685 13.2801C11.3685 10.5397 13.5827 8.35137 16.3554 8.35137L16.3753 8.33165Z" fill="white"/>
</svg>
