<svg width="46" height="44" viewBox="0 0 46 44" fill="none" xmlns="http://www.w3.org/2000/svg">
<path d="M0 0H41C43.7614 0 46 2.23858 46 5V39C46 41.7614 43.7614 44 41 44H0V0Z" fill="#EA9215"/>
<path d="M32.2653 30.7347L27.3247 25.7941C28.7094 24.2708 29.4434 22.2664 29.3699 20.2091C29.2964 18.1519 28.4213 16.205 26.9314 14.7844C25.4415 13.3638 23.4552 12.5823 21.3967 12.6068C19.3383 12.6313 17.3711 13.4599 15.9155 14.9155C14.4599 16.3711 13.6313 18.3383 13.6068 20.3968C13.5823 22.4552 14.3638 24.4416 15.7844 25.9314C17.2049 27.4213 19.1519 28.2965 21.2091 28.3699C23.2664 28.4434 25.2708 27.7094 26.794 26.3247L31.7347 31.2653C31.805 31.3357 31.9005 31.3752 32 31.3752C32.0995 31.3752 32.1949 31.3357 32.2653 31.2653C32.3357 31.1949 32.3752 31.0995 32.3752 31C32.3752 30.9005 32.3357 30.805 32.2653 30.7347ZM14.375 20.5C14.375 19.0908 14.7929 17.7133 15.5758 16.5416C16.3587 15.3699 17.4714 14.4566 18.7734 13.9174C20.0753 13.3781 21.5079 13.237 22.89 13.5119C24.2721 13.7868 25.5417 14.4654 26.5381 15.4619C27.5346 16.4583 28.2132 17.7279 28.4881 19.11C28.763 20.4921 28.6219 21.9247 28.0826 23.2266C27.5433 24.5285 26.6301 25.6413 25.4584 26.4242C24.2867 27.2071 22.9092 27.625 21.5 27.625C19.6109 27.623 17.7998 26.8717 16.464 25.5359C15.1283 24.2002 14.377 22.3891 14.375 20.5Z" fill="#FDF4E8"/>
</svg>
