<svg width="17" height="16" viewBox="0 0 17 16" fill="none" xmlns="http://www.w3.org/2000/svg">
<path fill-rule="evenodd" clip-rule="evenodd" d="M13.4477 0.0463867H3.85471C2.2653 0.0463867 0.976807 1.3056 0.976807 2.85889V12.2339C0.976807 13.7872 2.2653 15.0464 3.85471 15.0464H13.4477C15.0371 15.0464 16.3256 13.7872 16.3256 12.2339V2.85889C16.3256 1.3056 15.0371 0.0463867 13.4477 0.0463867ZM13.058 8.12468H11.622V13.3194H9.22277V8.12468H8.29174V6.37402H9.22277V5.25889C9.22277 3.79836 9.8448 2.92994 11.6059 2.92994H13.3912V4.6727H12.3531C11.6665 4.6727 11.622 4.92336 11.622 5.38915L11.62 6.37204H13.2518L13.0559 8.1227L13.058 8.12468Z" fill="#EA9215"/>
</svg>
