<svg width="24" height="24" viewBox="0 0 24 24" fill="none" xmlns="http://www.w3.org/2000/svg">
<g clip-path="url(#clip0_954_1836)">
<path d="M6.96937 7.28024C6.89964 7.21058 6.84432 7.12787 6.80658 7.03682C6.76884 6.94577 6.74941 6.84818 6.74941 6.74961C6.74941 6.65105 6.76884 6.55346 6.80658 6.46241C6.84432 6.37136 6.89964 6.28864 6.96937 6.21899L11.4694 1.71899C11.539 1.64926 11.6217 1.59394 11.7128 1.55619C11.8038 1.51845 11.9014 1.49902 12 1.49902C12.0986 1.49902 12.1962 1.51845 12.2872 1.55619C12.3783 1.59394 12.461 1.64926 12.5306 1.71899L17.0306 6.21899C17.1714 6.35972 17.2504 6.55059 17.2504 6.74961C17.2504 6.94864 17.1714 7.13951 17.0306 7.28024C16.8899 7.42097 16.699 7.50003 16.5 7.50003C16.301 7.50003 16.1101 7.42097 15.9694 7.28024L12.75 4.05993V11.9996C12.75 12.1985 12.671 12.3893 12.5303 12.5299C12.3897 12.6706 12.1989 12.7496 12 12.7496C11.8011 12.7496 11.6103 12.6706 11.4697 12.5299C11.329 12.3893 11.25 12.1985 11.25 11.9996V4.05993L8.03063 7.28024C7.96097 7.34997 7.87825 7.40529 7.78721 7.44303C7.69616 7.48078 7.59856 7.5002 7.5 7.5002C7.40144 7.5002 7.30384 7.48078 7.21279 7.44303C7.12175 7.40529 7.03903 7.34997 6.96937 7.28024ZM22.5 12.7496V18.7496C22.5 19.1474 22.342 19.529 22.0607 19.8103C21.7794 20.0916 21.3978 20.2496 21 20.2496H3C2.60218 20.2496 2.22064 20.0916 1.93934 19.8103C1.65804 19.529 1.5 19.1474 1.5 18.7496V12.7496C1.5 12.3518 1.65804 11.9703 1.93934 11.689C2.22064 11.4076 2.60218 11.2496 3 11.2496H9.375C9.47446 11.2496 9.56984 11.2891 9.64017 11.3594C9.71049 11.4298 9.75 11.5252 9.75 11.6246V11.949C9.75 13.2099 10.7813 14.2731 12.0431 14.2496C12.6324 14.2383 13.1936 13.9963 13.6063 13.5755C14.019 13.1548 14.2501 12.589 14.25 11.9996V11.6246C14.25 11.5252 14.2895 11.4298 14.3598 11.3594C14.4302 11.2891 14.5255 11.2496 14.625 11.2496H21C21.3978 11.2496 21.7794 11.4076 22.0607 11.689C22.342 11.9703 22.5 12.3518 22.5 12.7496ZM18.75 15.7496C18.75 15.5271 18.684 15.3096 18.5604 15.1246C18.4368 14.9396 18.2611 14.7954 18.0555 14.7102C17.85 14.6251 17.6238 14.6028 17.4055 14.6462C17.1873 14.6896 16.9868 14.7968 16.8295 14.9541C16.6722 15.1115 16.565 15.3119 16.5216 15.5301C16.4782 15.7484 16.5005 15.9746 16.5856 16.1801C16.6708 16.3857 16.815 16.5614 17 16.685C17.185 16.8086 17.4025 16.8746 17.625 16.8746C17.9234 16.8746 18.2095 16.7561 18.4205 16.5451C18.6315 16.3341 18.75 16.048 18.75 15.7496Z" fill="#FDF4E8"/>
</g>
<defs>
<clipPath id="clip0_954_1836">
<rect width="24" height="24" fill="white"/>
</clipPath>
</defs>
</svg>
