<svg width="17" height="17" viewBox="0 0 17 17" fill="none" xmlns="http://www.w3.org/2000/svg">
<g clip-path="url(#clip0_198_927)">
<path d="M13.721 0.697754H2.97676C1.70522 0.697754 0.674438 1.75197 0.674438 3.05241V14.0408C0.674438 15.3412 1.70522 16.3954 2.97676 16.3954H13.721C14.9925 16.3954 16.0233 15.3412 16.0233 14.0408V3.05241C16.0233 1.75197 14.9925 0.697754 13.721 0.697754Z" fill="#EA9215"/>
<path d="M13.4752 5.87949C13.3553 5.4196 12.9656 5.05169 12.5159 4.92905C11.4966 4.65311 5.35111 4.62245 4.18196 4.92905C3.73228 5.05169 3.34257 5.4196 3.22265 5.87949C2.95285 7.04456 2.92287 10.0185 3.22265 11.2143C3.34257 11.6741 3.73228 12.0421 4.18196 12.1647C5.26117 12.4713 11.4067 12.4713 12.5159 12.1647C12.9656 12.0421 13.3553 11.6741 13.4752 11.2143C13.745 10.1105 13.745 7.0139 13.4752 5.87949Z" fill="#3A4750"/>
<path d="M7.26965 6.92188V10.1718L10.0576 8.54683" fill="#EA9215"/>
</g>
<defs>
<clipPath id="clip0_198_927">
<rect width="15.3488" height="15.6977" fill="white" transform="translate(0.674438 0.697754)"/>
</clipPath>
</defs>
</svg>
